<mxfile host="app.diagrams.net" agent="Mozilla/5.0 (Windows NT 10.0; Win64; x64) AppleWebKit/537.36 (KHTML, like Gecko) Chrome/133.0.0.0 Safari/537.36" version="26.1.0">
  <diagram name="第 1 页" id="b4oZlTU23dc_2hYIpiDj">
    <mxGraphModel dx="1235" dy="699" grid="0" gridSize="10" guides="1" tooltips="1" connect="1" arrows="1" fold="1" page="1" pageScale="1" pageWidth="827" pageHeight="1169" math="0" shadow="0">
      <root>
        <mxCell id="0" />
        <mxCell id="1" parent="0" />
        <mxCell id="Qt1qpMMZrdfN4osZ2iUo-67" value="" style="ellipse;shape=cloud;whiteSpace=wrap;html=1;align=center;" vertex="1" parent="1">
          <mxGeometry x="501" y="110" width="120" height="80" as="geometry" />
        </mxCell>
        <mxCell id="Qt1qpMMZrdfN4osZ2iUo-32" value="" style="rounded=1;whiteSpace=wrap;html=1;" vertex="1" parent="1">
          <mxGeometry x="92" y="234" width="190" height="203" as="geometry" />
        </mxCell>
        <mxCell id="Qt1qpMMZrdfN4osZ2iUo-30" value="" style="rounded=1;whiteSpace=wrap;html=1;" vertex="1" parent="1">
          <mxGeometry x="60" y="474" width="282" height="160" as="geometry" />
        </mxCell>
        <mxCell id="Qt1qpMMZrdfN4osZ2iUo-29" style="edgeStyle=orthogonalEdgeStyle;rounded=0;orthogonalLoop=1;jettySize=auto;html=1;exitX=0.5;exitY=1;exitDx=0;exitDy=0;dashed=1;dashPattern=8 8;" edge="1" parent="1" source="Qt1qpMMZrdfN4osZ2iUo-1">
          <mxGeometry relative="1" as="geometry">
            <mxPoint x="120.28571428571433" y="424" as="targetPoint" />
          </mxGeometry>
        </mxCell>
        <mxCell id="Qt1qpMMZrdfN4osZ2iUo-1" value="" style="html=1;outlineConnect=0;align=center;dashed=1;shape=mxgraph.pid2inst.indicator;mounting=room;overflow=fill;indType=inst;dashPattern=8 8;direction=west;" vertex="1" parent="1">
          <mxGeometry x="95" y="494" width="50" height="112" as="geometry" />
        </mxCell>
        <mxCell id="Qt1qpMMZrdfN4osZ2iUo-26" style="edgeStyle=orthogonalEdgeStyle;rounded=0;orthogonalLoop=1;jettySize=auto;html=1;exitX=0.5;exitY=1;exitDx=0;exitDy=0;dashed=1;dashPattern=8 8;" edge="1" parent="1" source="Qt1qpMMZrdfN4osZ2iUo-2">
          <mxGeometry relative="1" as="geometry">
            <mxPoint x="183" y="424" as="targetPoint" />
          </mxGeometry>
        </mxCell>
        <mxCell id="Qt1qpMMZrdfN4osZ2iUo-2" value="" style="html=1;outlineConnect=0;align=center;dashed=1;shape=mxgraph.pid2inst.indicator;mounting=room;overflow=fill;indType=inst;dashPattern=8 8;direction=west;" vertex="1" parent="1">
          <mxGeometry x="158" y="504" width="50" height="100" as="geometry" />
        </mxCell>
        <mxCell id="Qt1qpMMZrdfN4osZ2iUo-19" value="" style="edgeStyle=orthogonalEdgeStyle;rounded=0;orthogonalLoop=1;jettySize=auto;html=1;" edge="1" parent="1" source="Qt1qpMMZrdfN4osZ2iUo-3">
          <mxGeometry relative="1" as="geometry">
            <mxPoint x="262" y="424" as="targetPoint" />
            <Array as="points">
              <mxPoint x="262" y="464" />
              <mxPoint x="262" y="464" />
            </Array>
          </mxGeometry>
        </mxCell>
        <mxCell id="Qt1qpMMZrdfN4osZ2iUo-3" value="" style="verticalLabelPosition=bottom;align=center;outlineConnect=0;dashed=0;html=1;verticalAlign=top;shape=mxgraph.pid.flow_sensors.ultrasonic;" vertex="1" parent="1">
          <mxGeometry x="226" y="505" width="66" height="60" as="geometry" />
        </mxCell>
        <mxCell id="Qt1qpMMZrdfN4osZ2iUo-4" value="" style="html=1;outlineConnect=0;align=center;shape=mxgraph.pid2inst.indicator;mounting=room;overflow=fill;indType=inst;direction=west;" vertex="1" parent="1">
          <mxGeometry x="218" y="561" width="20" height="50" as="geometry" />
        </mxCell>
        <mxCell id="Qt1qpMMZrdfN4osZ2iUo-7" value="P1" style="text;html=1;align=center;verticalAlign=middle;resizable=0;points=[];autosize=1;strokeColor=none;fillColor=none;" vertex="1" parent="1">
          <mxGeometry x="100" y="609" width="40" height="30" as="geometry" />
        </mxCell>
        <mxCell id="Qt1qpMMZrdfN4osZ2iUo-8" value="P2" style="text;html=1;align=center;verticalAlign=middle;resizable=0;points=[];autosize=1;strokeColor=none;fillColor=none;" vertex="1" parent="1">
          <mxGeometry x="164" y="611" width="40" height="30" as="geometry" />
        </mxCell>
        <mxCell id="Qt1qpMMZrdfN4osZ2iUo-9" value="" style="html=1;outlineConnect=0;align=center;shape=mxgraph.pid2inst.indicator;mounting=room;overflow=fill;indType=inst;direction=west;" vertex="1" parent="1">
          <mxGeometry x="250" y="561" width="20" height="50" as="geometry" />
        </mxCell>
        <mxCell id="Qt1qpMMZrdfN4osZ2iUo-10" value="" style="html=1;outlineConnect=0;align=center;dashed=1;shape=mxgraph.pid2inst.indicator;mounting=room;overflow=fill;indType=inst;dashPattern=8 8;direction=west;" vertex="1" parent="1">
          <mxGeometry x="282" y="562" width="20" height="50" as="geometry" />
        </mxCell>
        <mxCell id="Qt1qpMMZrdfN4osZ2iUo-11" value="UGM" style="text;html=1;align=center;verticalAlign=middle;resizable=0;points=[];autosize=1;strokeColor=none;fillColor=none;" vertex="1" parent="1">
          <mxGeometry x="283" y="533" width="50" height="30" as="geometry" />
        </mxCell>
        <mxCell id="Qt1qpMMZrdfN4osZ2iUo-12" value="Tn" style="text;html=1;align=center;verticalAlign=middle;resizable=0;points=[];autosize=1;strokeColor=none;fillColor=none;" vertex="1" parent="1">
          <mxGeometry x="206" y="611" width="40" height="30" as="geometry" />
        </mxCell>
        <mxCell id="Qt1qpMMZrdfN4osZ2iUo-13" value="Qn" style="text;html=1;align=center;verticalAlign=middle;resizable=0;points=[];autosize=1;strokeColor=none;fillColor=none;" vertex="1" parent="1">
          <mxGeometry x="240" y="612" width="40" height="30" as="geometry" />
        </mxCell>
        <mxCell id="Qt1qpMMZrdfN4osZ2iUo-14" value="Pn" style="text;html=1;align=center;verticalAlign=middle;resizable=0;points=[];autosize=1;strokeColor=none;fillColor=none;" vertex="1" parent="1">
          <mxGeometry x="273" y="612" width="40" height="30" as="geometry" />
        </mxCell>
        <mxCell id="Qt1qpMMZrdfN4osZ2iUo-38" style="edgeStyle=orthogonalEdgeStyle;rounded=0;orthogonalLoop=1;jettySize=auto;html=1;exitX=0.5;exitY=0;exitDx=0;exitDy=0;" edge="1" parent="1" source="Qt1qpMMZrdfN4osZ2iUo-20" target="Qt1qpMMZrdfN4osZ2iUo-37">
          <mxGeometry relative="1" as="geometry">
            <Array as="points">
              <mxPoint x="192" y="324" />
              <mxPoint x="192" y="324" />
            </Array>
          </mxGeometry>
        </mxCell>
        <mxCell id="Qt1qpMMZrdfN4osZ2iUo-39" value="推理" style="edgeLabel;html=1;align=center;verticalAlign=middle;resizable=0;points=[];" vertex="1" connectable="0" parent="Qt1qpMMZrdfN4osZ2iUo-38">
          <mxGeometry x="-0.0581" y="-2" relative="1" as="geometry">
            <mxPoint as="offset" />
          </mxGeometry>
        </mxCell>
        <mxCell id="Qt1qpMMZrdfN4osZ2iUo-20" value="ML模型" style="ellipse;whiteSpace=wrap;html=1;aspect=fixed;" vertex="1" parent="1">
          <mxGeometry x="152" y="334" width="80" height="80" as="geometry" />
        </mxCell>
        <mxCell id="Qt1qpMMZrdfN4osZ2iUo-27" style="edgeStyle=orthogonalEdgeStyle;rounded=0;orthogonalLoop=1;jettySize=auto;html=1;exitX=0.5;exitY=0;exitDx=0;exitDy=0;" edge="1" parent="1" source="Qt1qpMMZrdfN4osZ2iUo-21">
          <mxGeometry relative="1" as="geometry">
            <mxPoint x="148.8571428571429" y="424" as="targetPoint" />
          </mxGeometry>
        </mxCell>
        <mxCell id="Qt1qpMMZrdfN4osZ2iUo-21" value="&lt;span style=&quot;text-wrap-mode: nowrap;&quot;&gt;△Pm&lt;/span&gt;" style="ellipse;whiteSpace=wrap;html=1;aspect=fixed;dashed=1;dashPattern=8 8;" vertex="1" parent="1">
          <mxGeometry x="134" y="444" width="30" height="30" as="geometry" />
        </mxCell>
        <mxCell id="Qt1qpMMZrdfN4osZ2iUo-31" value="原始数据收集" style="text;html=1;align=center;verticalAlign=middle;resizable=0;points=[];autosize=1;strokeColor=none;fillColor=none;" vertex="1" parent="1">
          <mxGeometry x="255" y="449" width="100" height="30" as="geometry" />
        </mxCell>
        <mxCell id="Qt1qpMMZrdfN4osZ2iUo-36" value="服务器云端" style="ellipse;shape=cloud;whiteSpace=wrap;html=1;" vertex="1" parent="1">
          <mxGeometry x="121" y="110" width="120" height="80" as="geometry" />
        </mxCell>
        <mxCell id="Qt1qpMMZrdfN4osZ2iUo-37" value="Qm" style="ellipse;whiteSpace=wrap;html=1;aspect=fixed;" vertex="1" parent="1">
          <mxGeometry x="172" y="263" width="40" height="40" as="geometry" />
        </mxCell>
        <mxCell id="Qt1qpMMZrdfN4osZ2iUo-42" value="" style="html=1;outlineConnect=0;fillColor=#CCCCCC;strokeColor=#6881B3;gradientColor=none;gradientDirection=north;strokeWidth=2;shape=mxgraph.networks.comm_link_edge;html=1;rounded=0;exitX=0.57;exitY=0.013;exitDx=0;exitDy=0;exitPerimeter=0;" edge="1" parent="1">
          <mxGeometry width="100" height="100" relative="1" as="geometry">
            <mxPoint x="149.74" y="230.639" as="sourcePoint" />
            <mxPoint x="181" y="198" as="targetPoint" />
          </mxGeometry>
        </mxCell>
        <mxCell id="Qt1qpMMZrdfN4osZ2iUo-43" style="edgeStyle=orthogonalEdgeStyle;rounded=0;orthogonalLoop=1;jettySize=auto;html=1;exitX=0.5;exitY=0;exitDx=0;exitDy=0;entryX=0.55;entryY=0.95;entryDx=0;entryDy=0;entryPerimeter=0;dashed=1;dashPattern=8 8;" edge="1" parent="1" source="Qt1qpMMZrdfN4osZ2iUo-32" target="Qt1qpMMZrdfN4osZ2iUo-36">
          <mxGeometry relative="1" as="geometry" />
        </mxCell>
        <mxCell id="Qt1qpMMZrdfN4osZ2iUo-44" value="" style="rounded=1;whiteSpace=wrap;html=1;" vertex="1" parent="1">
          <mxGeometry x="472" y="310" width="190" height="127" as="geometry" />
        </mxCell>
        <mxCell id="Qt1qpMMZrdfN4osZ2iUo-45" value="" style="rounded=1;whiteSpace=wrap;html=1;" vertex="1" parent="1">
          <mxGeometry x="440" y="474" width="282" height="160" as="geometry" />
        </mxCell>
        <mxCell id="Qt1qpMMZrdfN4osZ2iUo-46" style="edgeStyle=orthogonalEdgeStyle;rounded=0;orthogonalLoop=1;jettySize=auto;html=1;exitX=0.5;exitY=1;exitDx=0;exitDy=0;dashed=1;dashPattern=8 8;" edge="1" parent="1" source="Qt1qpMMZrdfN4osZ2iUo-47">
          <mxGeometry relative="1" as="geometry">
            <mxPoint x="500.28571428571433" y="424" as="targetPoint" />
          </mxGeometry>
        </mxCell>
        <mxCell id="Qt1qpMMZrdfN4osZ2iUo-47" value="" style="html=1;outlineConnect=0;align=center;dashed=1;shape=mxgraph.pid2inst.indicator;mounting=room;overflow=fill;indType=inst;dashPattern=8 8;direction=west;" vertex="1" parent="1">
          <mxGeometry x="475" y="494" width="50" height="112" as="geometry" />
        </mxCell>
        <mxCell id="Qt1qpMMZrdfN4osZ2iUo-48" style="edgeStyle=orthogonalEdgeStyle;rounded=0;orthogonalLoop=1;jettySize=auto;html=1;exitX=0.5;exitY=1;exitDx=0;exitDy=0;dashed=1;dashPattern=8 8;" edge="1" parent="1" source="Qt1qpMMZrdfN4osZ2iUo-49">
          <mxGeometry relative="1" as="geometry">
            <mxPoint x="563" y="424" as="targetPoint" />
          </mxGeometry>
        </mxCell>
        <mxCell id="Qt1qpMMZrdfN4osZ2iUo-49" value="" style="html=1;outlineConnect=0;align=center;dashed=1;shape=mxgraph.pid2inst.indicator;mounting=room;overflow=fill;indType=inst;dashPattern=8 8;direction=west;" vertex="1" parent="1">
          <mxGeometry x="538" y="504" width="50" height="100" as="geometry" />
        </mxCell>
        <mxCell id="Qt1qpMMZrdfN4osZ2iUo-50" value="" style="edgeStyle=orthogonalEdgeStyle;rounded=0;orthogonalLoop=1;jettySize=auto;html=1;" edge="1" parent="1" source="Qt1qpMMZrdfN4osZ2iUo-51">
          <mxGeometry relative="1" as="geometry">
            <mxPoint x="642" y="424" as="targetPoint" />
            <Array as="points">
              <mxPoint x="642" y="464" />
              <mxPoint x="642" y="464" />
            </Array>
          </mxGeometry>
        </mxCell>
        <mxCell id="Qt1qpMMZrdfN4osZ2iUo-51" value="" style="verticalLabelPosition=bottom;align=center;outlineConnect=0;dashed=0;html=1;verticalAlign=top;shape=mxgraph.pid.flow_sensors.ultrasonic;" vertex="1" parent="1">
          <mxGeometry x="606" y="505" width="66" height="60" as="geometry" />
        </mxCell>
        <mxCell id="Qt1qpMMZrdfN4osZ2iUo-52" value="" style="html=1;outlineConnect=0;align=center;shape=mxgraph.pid2inst.indicator;mounting=room;overflow=fill;indType=inst;direction=west;" vertex="1" parent="1">
          <mxGeometry x="598" y="561" width="20" height="50" as="geometry" />
        </mxCell>
        <mxCell id="Qt1qpMMZrdfN4osZ2iUo-53" value="P1" style="text;html=1;align=center;verticalAlign=middle;resizable=0;points=[];autosize=1;strokeColor=none;fillColor=none;" vertex="1" parent="1">
          <mxGeometry x="480" y="609" width="40" height="30" as="geometry" />
        </mxCell>
        <mxCell id="Qt1qpMMZrdfN4osZ2iUo-54" value="P2" style="text;html=1;align=center;verticalAlign=middle;resizable=0;points=[];autosize=1;strokeColor=none;fillColor=none;" vertex="1" parent="1">
          <mxGeometry x="544" y="611" width="40" height="30" as="geometry" />
        </mxCell>
        <mxCell id="Qt1qpMMZrdfN4osZ2iUo-55" value="" style="html=1;outlineConnect=0;align=center;shape=mxgraph.pid2inst.indicator;mounting=room;overflow=fill;indType=inst;direction=west;" vertex="1" parent="1">
          <mxGeometry x="630" y="561" width="20" height="50" as="geometry" />
        </mxCell>
        <mxCell id="Qt1qpMMZrdfN4osZ2iUo-56" value="" style="html=1;outlineConnect=0;align=center;dashed=1;shape=mxgraph.pid2inst.indicator;mounting=room;overflow=fill;indType=inst;dashPattern=8 8;direction=west;" vertex="1" parent="1">
          <mxGeometry x="662" y="562" width="20" height="50" as="geometry" />
        </mxCell>
        <mxCell id="Qt1qpMMZrdfN4osZ2iUo-57" value="UGM" style="text;html=1;align=center;verticalAlign=middle;resizable=0;points=[];autosize=1;strokeColor=none;fillColor=none;" vertex="1" parent="1">
          <mxGeometry x="663" y="533" width="50" height="30" as="geometry" />
        </mxCell>
        <mxCell id="Qt1qpMMZrdfN4osZ2iUo-58" value="Tn" style="text;html=1;align=center;verticalAlign=middle;resizable=0;points=[];autosize=1;strokeColor=none;fillColor=none;" vertex="1" parent="1">
          <mxGeometry x="586" y="611" width="40" height="30" as="geometry" />
        </mxCell>
        <mxCell id="Qt1qpMMZrdfN4osZ2iUo-59" value="Qn" style="text;html=1;align=center;verticalAlign=middle;resizable=0;points=[];autosize=1;strokeColor=none;fillColor=none;" vertex="1" parent="1">
          <mxGeometry x="620" y="612" width="40" height="30" as="geometry" />
        </mxCell>
        <mxCell id="Qt1qpMMZrdfN4osZ2iUo-60" value="Pn" style="text;html=1;align=center;verticalAlign=middle;resizable=0;points=[];autosize=1;strokeColor=none;fillColor=none;" vertex="1" parent="1">
          <mxGeometry x="653" y="612" width="40" height="30" as="geometry" />
        </mxCell>
        <mxCell id="Qt1qpMMZrdfN4osZ2iUo-63" value="ML模型" style="ellipse;whiteSpace=wrap;html=1;aspect=fixed;" vertex="1" parent="1">
          <mxGeometry x="543" y="131" width="46" height="46" as="geometry" />
        </mxCell>
        <mxCell id="Qt1qpMMZrdfN4osZ2iUo-64" style="edgeStyle=orthogonalEdgeStyle;rounded=0;orthogonalLoop=1;jettySize=auto;html=1;exitX=0.5;exitY=0;exitDx=0;exitDy=0;" edge="1" parent="1" source="Qt1qpMMZrdfN4osZ2iUo-65">
          <mxGeometry relative="1" as="geometry">
            <mxPoint x="528.8571428571429" y="424" as="targetPoint" />
          </mxGeometry>
        </mxCell>
        <mxCell id="Qt1qpMMZrdfN4osZ2iUo-65" value="&lt;span style=&quot;text-wrap-mode: nowrap;&quot;&gt;△Pm&lt;/span&gt;" style="ellipse;whiteSpace=wrap;html=1;aspect=fixed;dashed=1;dashPattern=8 8;" vertex="1" parent="1">
          <mxGeometry x="514" y="444" width="30" height="30" as="geometry" />
        </mxCell>
        <mxCell id="Qt1qpMMZrdfN4osZ2iUo-66" value="原始数据收集" style="text;html=1;align=center;verticalAlign=middle;resizable=0;points=[];autosize=1;strokeColor=none;fillColor=none;" vertex="1" parent="1">
          <mxGeometry x="425" y="253" width="100" height="30" as="geometry" />
        </mxCell>
        <mxCell id="Qt1qpMMZrdfN4osZ2iUo-68" value="Qm" style="ellipse;whiteSpace=wrap;html=1;aspect=fixed;" vertex="1" parent="1">
          <mxGeometry x="578" y="340" width="40" height="40" as="geometry" />
        </mxCell>
        <mxCell id="Qt1qpMMZrdfN4osZ2iUo-69" value="" style="html=1;outlineConnect=0;fillColor=#CCCCCC;strokeColor=#6881B3;gradientColor=none;gradientDirection=north;strokeWidth=2;shape=mxgraph.networks.comm_link_edge;html=1;rounded=0;exitX=0.57;exitY=0.013;exitDx=0;exitDy=0;exitPerimeter=0;" edge="1" parent="1">
          <mxGeometry width="100" height="100" relative="1" as="geometry">
            <mxPoint x="546.74" y="230.639" as="sourcePoint" />
            <mxPoint x="578" y="198" as="targetPoint" />
          </mxGeometry>
        </mxCell>
        <mxCell id="Qt1qpMMZrdfN4osZ2iUo-71" style="edgeStyle=orthogonalEdgeStyle;rounded=0;orthogonalLoop=1;jettySize=auto;html=1;exitX=0.25;exitY=0;exitDx=0;exitDy=0;entryX=0.156;entryY=0.848;entryDx=0;entryDy=0;entryPerimeter=0;dashed=1;dashPattern=8 8;" edge="1" parent="1" source="Qt1qpMMZrdfN4osZ2iUo-44" target="Qt1qpMMZrdfN4osZ2iUo-67">
          <mxGeometry relative="1" as="geometry" />
        </mxCell>
        <mxCell id="Qt1qpMMZrdfN4osZ2iUo-72" style="edgeStyle=orthogonalEdgeStyle;rounded=0;orthogonalLoop=1;jettySize=auto;html=1;exitX=0.8;exitY=0.8;exitDx=0;exitDy=0;exitPerimeter=0;dashed=1;dashPattern=8 8;" edge="1" parent="1" source="Qt1qpMMZrdfN4osZ2iUo-67" target="Qt1qpMMZrdfN4osZ2iUo-68">
          <mxGeometry relative="1" as="geometry" />
        </mxCell>
        <mxCell id="Qt1qpMMZrdfN4osZ2iUo-73" value="端侧控制器" style="text;html=1;align=center;verticalAlign=middle;resizable=0;points=[];autosize=1;strokeColor=none;fillColor=none;" vertex="1" parent="1">
          <mxGeometry x="205" y="310" width="80" height="30" as="geometry" />
        </mxCell>
        <mxCell id="Qt1qpMMZrdfN4osZ2iUo-74" value="推理" style="text;html=1;align=center;verticalAlign=middle;resizable=0;points=[];autosize=1;strokeColor=none;fillColor=none;" vertex="1" parent="1">
          <mxGeometry x="593" y="253" width="50" height="30" as="geometry" />
        </mxCell>
        <mxCell id="Qt1qpMMZrdfN4osZ2iUo-75" value="端侧控制器" style="text;html=1;align=center;verticalAlign=middle;resizable=0;points=[];autosize=1;strokeColor=none;fillColor=none;" vertex="1" parent="1">
          <mxGeometry x="489" y="350" width="80" height="30" as="geometry" />
        </mxCell>
      </root>
    </mxGraphModel>
  </diagram>
</mxfile>
